<mxfile host="app.diagrams.net" modified="2023-07-29T20:50:04.630Z" agent="5.0 (Windows NT 10.0; Win64; x64) AppleWebKit/537.36 (KHTML, like Gecko) Chrome/114.0.0.0 YaBrowser/23.7.0.2526 Yowser/2.5 Safari/537.36" etag="gloOIbBOsfyYuqp1URl_" version="21.0.2" type="github">
  <diagram name="Page-1" id="9f46799a-70d6-7492-0946-bef42562c5a5">
    <mxGraphModel dx="1386" dy="1641" grid="1" gridSize="10" guides="1" tooltips="1" connect="1" arrows="1" fold="1" page="1" pageScale="1" pageWidth="1100" pageHeight="850" background="none" math="0" shadow="0">
      <root>
        <mxCell id="0" />
        <mxCell id="1" parent="0" />
        <mxCell id="ABxh47Di80QtA0GNeFFu-1" value="App" style="ellipse;whiteSpace=wrap;html=1;" vertex="1" parent="1">
          <mxGeometry x="490" y="-820" width="120" height="80" as="geometry" />
        </mxCell>
        <mxCell id="ABxh47Di80QtA0GNeFFu-2" value="Currency (feature A)" style="ellipse;whiteSpace=wrap;html=1;" vertex="1" parent="1">
          <mxGeometry x="170" y="-690" width="120" height="80" as="geometry" />
        </mxCell>
        <mxCell id="ABxh47Di80QtA0GNeFFu-3" value="Account (B)" style="ellipse;whiteSpace=wrap;html=1;" vertex="1" parent="1">
          <mxGeometry x="390" y="-690" width="120" height="80" as="geometry" />
        </mxCell>
        <mxCell id="ABxh47Di80QtA0GNeFFu-4" value="Transaction" style="ellipse;whiteSpace=wrap;html=1;" vertex="1" parent="1">
          <mxGeometry x="660" y="-690" width="120" height="80" as="geometry" />
        </mxCell>
        <mxCell id="ABxh47Di80QtA0GNeFFu-5" value="&quot;Top expences&quot; report" style="ellipse;whiteSpace=wrap;html=1;" vertex="1" parent="1">
          <mxGeometry x="900" y="-690" width="120" height="80" as="geometry" />
        </mxCell>
        <mxCell id="ABxh47Di80QtA0GNeFFu-6" value="ui kit" style="ellipse;whiteSpace=wrap;html=1;" vertex="1" parent="1">
          <mxGeometry x="890" y="-540" width="120" height="80" as="geometry" />
        </mxCell>
        <mxCell id="ABxh47Di80QtA0GNeFFu-7" value="" style="endArrow=classic;html=1;rounded=0;entryX=0.5;entryY=1;entryDx=0;entryDy=0;exitX=0.5;exitY=0;exitDx=0;exitDy=0;" edge="1" parent="1" source="ABxh47Di80QtA0GNeFFu-6" target="ABxh47Di80QtA0GNeFFu-5">
          <mxGeometry width="50" height="50" relative="1" as="geometry">
            <mxPoint x="360" y="-500" as="sourcePoint" />
            <mxPoint x="410" y="-550" as="targetPoint" />
          </mxGeometry>
        </mxCell>
        <mxCell id="ABxh47Di80QtA0GNeFFu-9" value="charts&lt;br&gt;" style="text;html=1;align=center;verticalAlign=middle;resizable=0;points=[];autosize=1;strokeColor=none;fillColor=none;" vertex="1" parent="1">
          <mxGeometry x="1010" y="-530" width="60" height="30" as="geometry" />
        </mxCell>
        <mxCell id="ABxh47Di80QtA0GNeFFu-10" value="base BS module" style="ellipse;whiteSpace=wrap;html=1;" vertex="1" parent="1">
          <mxGeometry x="740" y="-540" width="120" height="80" as="geometry" />
        </mxCell>
        <mxCell id="ABxh47Di80QtA0GNeFFu-11" value="core factory" style="ellipse;whiteSpace=wrap;html=1;" vertex="1" parent="1">
          <mxGeometry x="370" y="-380" width="120" height="80" as="geometry" />
        </mxCell>
        <mxCell id="ABxh47Di80QtA0GNeFFu-12" value="core API" style="ellipse;whiteSpace=wrap;html=1;" vertex="1" parent="1">
          <mxGeometry x="510" y="-230" width="120" height="80" as="geometry" />
        </mxCell>
        <mxCell id="ABxh47Di80QtA0GNeFFu-13" value="core impl" style="ellipse;whiteSpace=wrap;html=1;" vertex="1" parent="1">
          <mxGeometry x="240" y="-230" width="120" height="80" as="geometry" />
        </mxCell>
        <mxCell id="ABxh47Di80QtA0GNeFFu-14" value="" style="endArrow=classic;html=1;rounded=0;exitX=0.783;exitY=0.063;exitDx=0;exitDy=0;exitPerimeter=0;" edge="1" parent="1" source="ABxh47Di80QtA0GNeFFu-12" target="ABxh47Di80QtA0GNeFFu-4">
          <mxGeometry width="50" height="50" relative="1" as="geometry">
            <mxPoint x="610" y="-220" as="sourcePoint" />
            <mxPoint x="660" y="-270" as="targetPoint" />
          </mxGeometry>
        </mxCell>
        <mxCell id="ABxh47Di80QtA0GNeFFu-15" value="" style="endArrow=classic;html=1;rounded=0;exitX=0.608;exitY=0.013;exitDx=0;exitDy=0;exitPerimeter=0;entryX=0.092;entryY=0.775;entryDx=0;entryDy=0;entryPerimeter=0;" edge="1" parent="1" source="ABxh47Di80QtA0GNeFFu-13" target="ABxh47Di80QtA0GNeFFu-11">
          <mxGeometry width="50" height="50" relative="1" as="geometry">
            <mxPoint x="300" y="-300" as="sourcePoint" />
            <mxPoint x="350" y="-350" as="targetPoint" />
          </mxGeometry>
        </mxCell>
        <mxCell id="ABxh47Di80QtA0GNeFFu-17" value="" style="endArrow=classic;html=1;rounded=0;exitX=0;exitY=0.5;exitDx=0;exitDy=0;entryX=1;entryY=0.5;entryDx=0;entryDy=0;" edge="1" parent="1" source="ABxh47Di80QtA0GNeFFu-12" target="ABxh47Di80QtA0GNeFFu-13">
          <mxGeometry width="50" height="50" relative="1" as="geometry">
            <mxPoint x="520" y="-430" as="sourcePoint" />
            <mxPoint x="570" y="-480" as="targetPoint" />
          </mxGeometry>
        </mxCell>
        <mxCell id="ABxh47Di80QtA0GNeFFu-18" value="" style="endArrow=classic;html=1;rounded=0;exitX=0.417;exitY=-0.025;exitDx=0;exitDy=0;exitPerimeter=0;entryX=1;entryY=1;entryDx=0;entryDy=0;" edge="1" parent="1" source="ABxh47Di80QtA0GNeFFu-12" target="ABxh47Di80QtA0GNeFFu-11">
          <mxGeometry width="50" height="50" relative="1" as="geometry">
            <mxPoint x="520" y="-430" as="sourcePoint" />
            <mxPoint x="570" y="-480" as="targetPoint" />
          </mxGeometry>
        </mxCell>
        <mxCell id="ABxh47Di80QtA0GNeFFu-19" value="" style="endArrow=classic;html=1;rounded=0;exitX=0.5;exitY=0;exitDx=0;exitDy=0;entryX=0.5;entryY=1;entryDx=0;entryDy=0;" edge="1" parent="1" source="ABxh47Di80QtA0GNeFFu-11" target="ABxh47Di80QtA0GNeFFu-3">
          <mxGeometry width="50" height="50" relative="1" as="geometry">
            <mxPoint x="520" y="-430" as="sourcePoint" />
            <mxPoint x="570" y="-480" as="targetPoint" />
          </mxGeometry>
        </mxCell>
        <mxCell id="ABxh47Di80QtA0GNeFFu-20" value="" style="endArrow=classic;html=1;rounded=0;exitX=0.433;exitY=0;exitDx=0;exitDy=0;exitPerimeter=0;entryX=0.583;entryY=1.05;entryDx=0;entryDy=0;entryPerimeter=0;" edge="1" parent="1" source="ABxh47Di80QtA0GNeFFu-11" target="ABxh47Di80QtA0GNeFFu-2">
          <mxGeometry width="50" height="50" relative="1" as="geometry">
            <mxPoint x="405" y="-440" as="sourcePoint" />
            <mxPoint x="455" y="-490" as="targetPoint" />
          </mxGeometry>
        </mxCell>
        <mxCell id="ABxh47Di80QtA0GNeFFu-21" value="" style="endArrow=classic;html=1;rounded=0;entryX=1;entryY=0.5;entryDx=0;entryDy=0;" edge="1" parent="1" target="ABxh47Di80QtA0GNeFFu-10">
          <mxGeometry width="50" height="50" relative="1" as="geometry">
            <mxPoint x="890" y="-500" as="sourcePoint" />
            <mxPoint x="570" y="-480" as="targetPoint" />
          </mxGeometry>
        </mxCell>
        <mxCell id="ABxh47Di80QtA0GNeFFu-22" value="" style="endArrow=classic;html=1;rounded=0;exitX=0.5;exitY=0;exitDx=0;exitDy=0;entryX=0;entryY=1;entryDx=0;entryDy=0;" edge="1" parent="1" source="ABxh47Di80QtA0GNeFFu-11" target="ABxh47Di80QtA0GNeFFu-4">
          <mxGeometry width="50" height="50" relative="1" as="geometry">
            <mxPoint x="520" y="-430" as="sourcePoint" />
            <mxPoint x="570" y="-480" as="targetPoint" />
          </mxGeometry>
        </mxCell>
        <mxCell id="ABxh47Di80QtA0GNeFFu-23" value="" style="endArrow=classic;html=1;rounded=0;exitX=0.5;exitY=0;exitDx=0;exitDy=0;entryX=0;entryY=1;entryDx=0;entryDy=0;" edge="1" parent="1" source="ABxh47Di80QtA0GNeFFu-11" target="ABxh47Di80QtA0GNeFFu-5">
          <mxGeometry width="50" height="50" relative="1" as="geometry">
            <mxPoint x="520" y="-430" as="sourcePoint" />
            <mxPoint x="570" y="-480" as="targetPoint" />
          </mxGeometry>
        </mxCell>
        <mxCell id="ABxh47Di80QtA0GNeFFu-24" value="" style="endArrow=classic;html=1;rounded=0;exitX=0.5;exitY=0;exitDx=0;exitDy=0;entryX=0;entryY=0.625;entryDx=0;entryDy=0;entryPerimeter=0;" edge="1" parent="1" source="ABxh47Di80QtA0GNeFFu-2" target="ABxh47Di80QtA0GNeFFu-1">
          <mxGeometry width="50" height="50" relative="1" as="geometry">
            <mxPoint x="520" y="-430" as="sourcePoint" />
            <mxPoint x="570" y="-480" as="targetPoint" />
          </mxGeometry>
        </mxCell>
        <mxCell id="ABxh47Di80QtA0GNeFFu-25" value="" style="endArrow=classic;html=1;rounded=0;exitX=0.5;exitY=0;exitDx=0;exitDy=0;entryX=0;entryY=1;entryDx=0;entryDy=0;" edge="1" parent="1" source="ABxh47Di80QtA0GNeFFu-3" target="ABxh47Di80QtA0GNeFFu-1">
          <mxGeometry width="50" height="50" relative="1" as="geometry">
            <mxPoint x="520" y="-430" as="sourcePoint" />
            <mxPoint x="570" y="-480" as="targetPoint" />
          </mxGeometry>
        </mxCell>
        <mxCell id="ABxh47Di80QtA0GNeFFu-26" value="" style="endArrow=classic;html=1;rounded=0;exitX=0.5;exitY=0;exitDx=0;exitDy=0;entryX=1;entryY=1;entryDx=0;entryDy=0;" edge="1" parent="1" source="ABxh47Di80QtA0GNeFFu-4" target="ABxh47Di80QtA0GNeFFu-1">
          <mxGeometry width="50" height="50" relative="1" as="geometry">
            <mxPoint x="520" y="-430" as="sourcePoint" />
            <mxPoint x="570" y="-480" as="targetPoint" />
          </mxGeometry>
        </mxCell>
        <mxCell id="ABxh47Di80QtA0GNeFFu-27" value="" style="endArrow=classic;html=1;rounded=0;exitX=0;exitY=0;exitDx=0;exitDy=0;entryX=1;entryY=0.5;entryDx=0;entryDy=0;" edge="1" parent="1" source="ABxh47Di80QtA0GNeFFu-5" target="ABxh47Di80QtA0GNeFFu-1">
          <mxGeometry width="50" height="50" relative="1" as="geometry">
            <mxPoint x="520" y="-430" as="sourcePoint" />
            <mxPoint x="570" y="-480" as="targetPoint" />
          </mxGeometry>
        </mxCell>
        <mxCell id="ABxh47Di80QtA0GNeFFu-28" value="" style="endArrow=classic;html=1;rounded=0;exitX=0.5;exitY=0;exitDx=0;exitDy=0;entryX=0.5;entryY=1;entryDx=0;entryDy=0;" edge="1" parent="1" source="ABxh47Di80QtA0GNeFFu-11" target="ABxh47Di80QtA0GNeFFu-1">
          <mxGeometry width="50" height="50" relative="1" as="geometry">
            <mxPoint x="520" y="-430" as="sourcePoint" />
            <mxPoint x="570" y="-480" as="targetPoint" />
          </mxGeometry>
        </mxCell>
        <mxCell id="ABxh47Di80QtA0GNeFFu-29" value="Currency API" style="ellipse;whiteSpace=wrap;html=1;" vertex="1" parent="1">
          <mxGeometry x="5" y="-690" width="120" height="80" as="geometry" />
        </mxCell>
        <mxCell id="ABxh47Di80QtA0GNeFFu-33" value="" style="endArrow=classic;html=1;rounded=0;exitX=0.608;exitY=0.013;exitDx=0;exitDy=0;exitPerimeter=0;entryX=0.3;entryY=1;entryDx=0;entryDy=0;entryPerimeter=0;" edge="1" parent="1" source="ABxh47Di80QtA0GNeFFu-10" target="ABxh47Di80QtA0GNeFFu-5">
          <mxGeometry width="50" height="50" relative="1" as="geometry">
            <mxPoint x="850" y="-550" as="sourcePoint" />
            <mxPoint x="900" y="-600" as="targetPoint" />
          </mxGeometry>
        </mxCell>
        <mxCell id="ABxh47Di80QtA0GNeFFu-34" value="" style="endArrow=classic;html=1;rounded=0;exitX=1;exitY=0.5;exitDx=0;exitDy=0;entryX=0;entryY=0.5;entryDx=0;entryDy=0;" edge="1" parent="1" source="ABxh47Di80QtA0GNeFFu-29" target="ABxh47Di80QtA0GNeFFu-2">
          <mxGeometry width="50" height="50" relative="1" as="geometry">
            <mxPoint x="120" y="-740" as="sourcePoint" />
            <mxPoint x="170" y="-790" as="targetPoint" />
          </mxGeometry>
        </mxCell>
        <mxCell id="ABxh47Di80QtA0GNeFFu-36" value="" style="endArrow=classic;html=1;rounded=0;exitX=0.617;exitY=0.013;exitDx=0;exitDy=0;exitPerimeter=0;entryX=0;entryY=0;entryDx=0;entryDy=0;" edge="1" parent="1" source="ABxh47Di80QtA0GNeFFu-29" target="ABxh47Di80QtA0GNeFFu-3">
          <mxGeometry width="50" height="50" relative="1" as="geometry">
            <mxPoint x="80" y="-740" as="sourcePoint" />
            <mxPoint x="130" y="-790" as="targetPoint" />
            <Array as="points">
              <mxPoint x="240" y="-730" />
            </Array>
          </mxGeometry>
        </mxCell>
        <mxCell id="ABxh47Di80QtA0GNeFFu-37" value="" style="endArrow=classic;html=1;rounded=0;exitX=0.5;exitY=0;exitDx=0;exitDy=0;" edge="1" parent="1" source="ABxh47Di80QtA0GNeFFu-12" target="ABxh47Di80QtA0GNeFFu-3">
          <mxGeometry width="50" height="50" relative="1" as="geometry">
            <mxPoint x="520" y="-430" as="sourcePoint" />
            <mxPoint x="570" y="-480" as="targetPoint" />
          </mxGeometry>
        </mxCell>
        <mxCell id="ABxh47Di80QtA0GNeFFu-38" value="" style="endArrow=classic;html=1;rounded=0;exitX=0.575;exitY=-0.025;exitDx=0;exitDy=0;exitPerimeter=0;entryX=0.65;entryY=1.05;entryDx=0;entryDy=0;entryPerimeter=0;" edge="1" parent="1" source="ABxh47Di80QtA0GNeFFu-12" target="ABxh47Di80QtA0GNeFFu-1">
          <mxGeometry width="50" height="50" relative="1" as="geometry">
            <mxPoint x="520" y="-430" as="sourcePoint" />
            <mxPoint x="570" y="-480" as="targetPoint" />
          </mxGeometry>
        </mxCell>
        <mxCell id="ABxh47Di80QtA0GNeFFu-39" value="" style="endArrow=classic;html=1;rounded=0;exitX=0;exitY=0;exitDx=0;exitDy=0;entryX=0.5;entryY=1;entryDx=0;entryDy=0;" edge="1" parent="1" source="ABxh47Di80QtA0GNeFFu-12" target="ABxh47Di80QtA0GNeFFu-2">
          <mxGeometry width="50" height="50" relative="1" as="geometry">
            <mxPoint x="520" y="-430" as="sourcePoint" />
            <mxPoint x="570" y="-480" as="targetPoint" />
            <Array as="points">
              <mxPoint x="330" y="-310" />
            </Array>
          </mxGeometry>
        </mxCell>
      </root>
    </mxGraphModel>
  </diagram>
</mxfile>
